<svg width="40" height="40" viewBox="0 0 40 40" fill="none" xmlns="http://www.w3.org/2000/svg">
<g clip-path="url(#clip0_70_193538)">
<path d="M20 0C16.0444 0 12.1776 1.17298 8.8886 3.37061C5.59962 5.56824 3.03617 8.69181 1.52242 12.3463C0.00866572 16.0009 -0.387401 20.0222 0.384303 23.9018C1.15601 27.7814 3.06082 31.3451 5.85787 34.1421C8.65492 36.9392 12.2186 38.844 16.0982 39.6157C19.9778 40.3874 23.9992 39.9913 27.6537 38.4776C31.3082 36.9638 34.4318 34.4004 36.6294 31.1114C38.827 27.8224 40 23.9556 40 20C39.9943 14.6974 37.8853 9.61368 34.1358 5.8642C30.3863 2.11471 25.3026 0.00573514 20 0ZM21.6667 19.7983C21.6669 20.0809 21.5952 20.3588 21.4585 20.606C21.3217 20.8532 21.1244 21.0616 20.885 21.2117L14.485 25.2117C14.299 25.3279 14.0919 25.4063 13.8755 25.4425C13.6592 25.4787 13.4378 25.4719 13.2241 25.4225C13.0103 25.3732 12.8084 25.2822 12.6299 25.1548C12.4513 25.0274 12.2996 24.866 12.1833 24.68C12.0671 24.494 11.9887 24.2869 11.9525 24.0705C11.9163 23.8541 11.9231 23.6328 11.9725 23.4191C12.0219 23.2053 12.1128 23.0034 12.2402 22.8248C12.3676 22.6463 12.529 22.4946 12.715 22.3783L18.3333 18.875V11.6667C18.3333 11.2246 18.5089 10.8007 18.8215 10.4882C19.1341 10.1756 19.558 10 20 10C20.442 10 20.866 10.1756 21.1785 10.4882C21.4911 10.8007 21.6667 11.2246 21.6667 11.6667V19.7983Z" fill="#EBAF2F"/>
</g>
<defs>
<clipPath id="clip0_70_193538">
<rect width="40" height="40" fill="#EBAF2F"/>
</clipPath>
</defs>
</svg>
